<?xml version="1.0" encoding="utf-8"?>
<!-- Generator: Adobe Illustrator 16.0.0, SVG Export Plug-In . SVG Version: 6.00 Build 0)  -->
<!DOCTYPE svg PUBLIC "-//W3C//DTD SVG 1.1//EN" "http://www.w3.org/Graphics/SVG/1.1/DTD/svg11.dtd">
<svg version="1.1" xmlns="http://www.w3.org/2000/svg" xmlns:xlink="http://www.w3.org/1999/xlink" x="0px" y="0px" width="220px"
	 height="99.334px" viewBox="0 0 220 99.334" enable-background="new 0 0 220 99.334" xml:space="preserve">
<g id="Layer_2">
</g>
<g id="Layer_1">
	<g>
		<g>
			<path fill="#00A79D" d="M213.565,46.096c-0.45,0.5-0.971,0.91-1.57,1.221c0.57,0.37,1.1,0.75,1.59,1.13
				c0.021-0.351,0.04-0.7,0.04-1.05C213.595,47.006,213.575,46.566,213.565,46.096z M203.665,28.566c1.67-0.69,3.54-0.521,5.3,0.33
				c-1.189-2.181-2.57-4.24-4.189-6.08c0.149,1.279-0.33,2.439-1.28,2.83c-1.24,0.52-2.83-0.44-3.53-2.141
				c-0.71-1.71-0.27-3.51,0.97-4.02c0.141-0.05,0.28-0.09,0.421-0.11c-1.511-1.33-3.141-2.51-4.881-3.45
				c-0.64-0.399-1.3-0.76-2-1.04c-0.68-0.3-1.34-0.64-2.029-0.909c-1.41-0.45-2.79-1.011-4.24-1.24c-1.25-0.3-2.5-0.48-3.75-0.57
				c-0.36,0.66-0.72,1.33-1.05,2c-1.4,3.16-2.351,6.5-2.95,9.811c-0.93,6.79-0.19,13.56,2.25,19.479
				c2.22,5.87,6.15,10.26,9.99,12.71c1.899,1.28,3.97,1.851,5.609,2.18c1.721,0.25,3.21-0.14,4.21-0.569
				c1.051-0.66,1.66-1.431,1.971-2.28l0.22-0.7c0.06-0.25,0.09-0.3,0.12-0.63c0.04-0.42,0.01-0.83-0.01-0.91
				c0-0.01-0.29-1.16-0.73-1.939c-0.32-0.78-0.6-1.09-0.97-1.75c-0.21-0.33-0.42-0.65-0.62-0.971c-0.82-1.239-1.62-2.399-2.48-3.369
				c-0.859-0.971-1.609-1.641-2.46-2.21c-0.3-0.23-0.729-0.471-1.04-0.641l-0.37-0.22l-0.439-0.2c-0.4-0.189-0.62-0.3-0.62-0.3
				s1.78,0.06,4.57,0.62c0.64,0.13,1.27,0.279,1.92,0.45c-0.34-0.561-0.65-1.171-0.91-1.801
				C198.495,35.687,199.835,30.156,203.665,28.566z M199.005,69.966c-3.26-0.51-7.26-1.93-11.149-5.069
				c-3.79-3.17-7.61-7.71-9.95-13.521c-2.471-5.7-3.851-12.7-3.41-19.56c0.04-3.49,0.81-6.87,1.67-10.29c1-3.23,2.3-6.4,3.99-9.351
				c-0.09,0-0.19,0.011-0.28,0.011c-3.38,0.33-6.68,1.25-9.65,2.619c-4.369,10.15-5.43,21.95-2.699,32.57
				c3.18,13.25,11.93,23.91,21.13,27.99c3.21,1.54,6.34,2.35,9.29,2.62c2.069-1.32,3.97-2.95,5.68-4.75
				c1.27-1.28,2.4-2.71,3.42-4.21C204.775,69.826,202.055,70.267,199.005,69.966z M181.565,82.696c-3.28-2.41-6.4-5.37-9.16-8.92
				c-7.86-9.87-12.21-23.99-11.25-38.16c0.359-6.14,1.77-12.2,4.06-17.84c-0.05,0.04-0.09,0.069-0.14,0.1
				c-4.09,2.98-7.061,6.7-9.17,10.26c-1.09,1.771-1.87,3.561-2.57,5.21c-0.57,1.71-1.16,3.261-1.44,4.73
				c-0.02,0.09-0.039,0.17-0.06,0.25c-0.18,5.04,0.19,10.13,1.15,15.1c1.31,6.681,3.739,13.07,7,18.83
				c1.46,1.65,3.149,3.24,5.09,4.66c4.01,3.05,9.229,5.15,14.85,5.7c0.19,0.04,0.391,0.06,0.59,0.07c0.101,0.01,0.19,0.01,0.29,0.01
				h0.29c0.16,0,0.32,0,0.48,0.01h0.33C181.785,82.696,181.675,82.696,181.565,82.696z"/>
			<path fill="#62C6C2" d="M213.565,46.096c-0.45,0.5-0.971,0.91-1.57,1.221c-0.92-0.601-1.91-1.181-2.9-1.7
				c-0.8-0.42-1.58-0.8-2.38-1.15c-0.859-0.359-1.71-0.689-2.53-0.96c-0.92-0.319-1.779-0.569-2.609-0.779
				c-0.34-0.561-0.65-1.171-0.91-1.801c-2.17-5.239-0.83-10.77,3-12.359c1.67-0.69,3.54-0.521,5.3,0.33
				c0.04,0.069,0.08,0.14,0.12,0.21c1.53,2.739,2.57,5.76,3.4,8.819l0.52,2.33c0.14,0.771,0.2,1.521,0.32,2.28
				C213.515,43.536,213.535,44.886,213.565,46.096z"/>
			<path fill="#62C6C2" d="M203.495,25.646c-1.24,0.52-2.83-0.44-3.53-2.141c-0.71-1.71-0.27-3.51,0.97-4.02
				c0.141-0.05,0.28-0.09,0.421-0.11c0.789,0.7,1.539,1.43,2.26,2.19c0.399,0.399,0.79,0.819,1.16,1.25
				C204.925,24.096,204.445,25.256,203.495,25.646z"/>
		</g>
		<g>
			<g>
				<path fill="#FFFFFF" d="M5.486,56.727h5.172c2.08,0,3.679,0.247,4.796,0.74c1.118,0.494,2,1.252,2.648,2.273
					c0.647,1.022,0.972,2.158,0.972,3.406c0,1.165-0.284,2.226-0.852,3.183c-0.568,0.957-1.402,1.732-2.502,2.327
					c1.363,0.464,2.411,1.008,3.146,1.632c0.734,0.624,1.307,1.379,1.716,2.265s0.613,1.846,0.613,2.88
					c0,2.104-0.77,3.884-2.31,5.34c-1.539,1.457-3.604,2.185-6.196,2.185H5.486V56.727z M8.055,59.295v8.398h1.501
					c1.822,0,3.162-0.169,4.021-0.508c0.857-0.339,1.537-0.874,2.037-1.605c0.5-0.73,0.751-1.542,0.751-2.434
					c0-1.201-0.421-2.143-1.26-2.826c-0.84-0.684-2.178-1.025-4.013-1.025H8.055z M8.055,70.332V80.39h3.251
					c1.917,0,3.322-0.188,4.215-0.563c0.894-0.374,1.61-0.959,2.152-1.756c0.542-0.796,0.813-1.658,0.813-2.586
					c0-1.165-0.381-2.181-1.143-3.049c-0.763-0.867-1.81-1.462-3.143-1.783c-0.894-0.214-2.448-0.321-4.664-0.321H8.055z"/>
				<path fill="#FFFFFF" d="M34.18,56.727l12.232,26.23h-2.831l-4.126-8.631h-11.3l-4.086,8.631h-2.924l12.393-26.23H34.18z
					 M33.849,62.3l-4.494,9.495h8.968L33.849,62.3z"/>
				<path fill="#FFFFFF" d="M47.735,56.727h5.225c2.913,0,4.887,0.12,5.921,0.357c1.557,0.357,2.823,1.122,3.798,2.294
					c0.975,1.173,1.462,2.616,1.462,4.33c0,1.429-0.336,2.685-1.008,3.768c-0.671,1.083-1.631,1.901-2.879,2.454
					c-1.249,0.554-2.973,0.837-5.172,0.849l9.434,12.179h-3.243l-9.434-12.179h-1.481v12.179h-2.622V56.727z M50.357,59.295v8.916
					l4.519,0.035c1.75,0,3.045-0.166,3.884-0.499c0.84-0.333,1.495-0.865,1.965-1.596c0.471-0.731,0.706-1.549,0.706-2.452
					c0-0.88-0.238-1.679-0.715-2.398c-0.477-0.719-1.102-1.233-1.875-1.542c-0.774-0.31-2.061-0.464-3.857-0.464H50.357z"/>
				<path fill="#FFFFFF" d="M69.534,56.727h5.225c2.913,0,4.887,0.12,5.921,0.357c1.557,0.357,2.823,1.122,3.798,2.294
					c0.975,1.173,1.462,2.616,1.462,4.33c0,1.429-0.336,2.685-1.008,3.768c-0.671,1.083-1.631,1.901-2.879,2.454
					c-1.249,0.554-2.973,0.837-5.172,0.849l9.434,12.179h-3.243l-9.434-12.179h-1.481v12.179h-2.622V56.727z M72.156,59.295v8.916
					l4.519,0.035c1.75,0,3.045-0.166,3.884-0.499c0.84-0.333,1.495-0.865,1.965-1.596c0.471-0.731,0.706-1.549,0.706-2.452
					c0-0.88-0.238-1.679-0.715-2.398c-0.477-0.719-1.102-1.233-1.875-1.542c-0.774-0.31-2.061-0.464-3.857-0.464H72.156z"/>
				<path fill="#FFFFFF" d="M91.209,56.727h15.031v2.568H93.83v8.22h12.304v2.568H93.83V80.39h12.304v2.567H91.209V56.727z"/>
			</g>
			<g>
				<path fill="#FFFFFF" d="M110.957,59.295v-2.568h14.372v2.568h-5.849v23.662h-2.675V59.295H110.957z"/>
				<path fill="#FFFFFF" d="M124.717,59.295v-2.568h14.372v2.568h-5.849v23.662h-2.675V59.295H124.717z"/>
			</g>
			<g>
				<path fill="#FFFFFF" d="M11.939,86.823v7.968h-0.729v-0.988c-0.311,0.377-0.658,0.661-1.044,0.851
					c-0.386,0.19-0.808,0.285-1.265,0.285c-0.814,0-1.509-0.295-2.085-0.885c-0.575-0.59-0.863-1.308-0.863-2.152
					c0-0.828,0.29-1.536,0.871-2.124c0.582-0.589,1.28-0.883,2.098-0.883c0.473,0,0.899,0.101,1.281,0.302
					c0.383,0.2,0.718,0.502,1.007,0.903v-3.276H11.939z M8.983,89.608c-0.411,0-0.791,0.101-1.14,0.303
					c-0.349,0.203-0.625,0.487-0.831,0.853c-0.206,0.366-0.309,0.753-0.309,1.161c0,0.404,0.104,0.792,0.312,1.161
					c0.207,0.369,0.486,0.657,0.836,0.862c0.351,0.206,0.726,0.31,1.127,0.31c0.404,0,0.788-0.103,1.15-0.307
					s0.642-0.48,0.837-0.828c0.195-0.349,0.293-0.741,0.293-1.177c0-0.665-0.22-1.221-0.657-1.668
					C10.163,89.831,9.624,89.608,8.983,89.608z"/>
				<path fill="#FFFFFF" d="M19.342,89.043v5.748h-0.729v-0.988c-0.31,0.377-0.658,0.661-1.043,0.851
					c-0.386,0.19-0.808,0.285-1.266,0.285c-0.813,0-1.509-0.295-2.085-0.885c-0.575-0.59-0.863-1.308-0.863-2.152
					c0-0.828,0.29-1.536,0.872-2.124c0.581-0.589,1.28-0.883,2.097-0.883c0.473,0,0.899,0.101,1.281,0.302
					c0.383,0.2,0.718,0.502,1.007,0.903v-1.057H19.342z M16.386,89.608c-0.412,0-0.792,0.101-1.141,0.303
					c-0.348,0.203-0.625,0.487-0.831,0.853c-0.206,0.366-0.309,0.753-0.309,1.161c0,0.404,0.104,0.792,0.312,1.161
					c0.207,0.369,0.486,0.657,0.836,0.862c0.351,0.206,0.726,0.31,1.127,0.31c0.405,0,0.788-0.103,1.15-0.307
					s0.642-0.48,0.837-0.828c0.195-0.349,0.293-0.741,0.293-1.177c0-0.665-0.22-1.221-0.657-1.668
					C17.564,89.831,17.025,89.608,16.386,89.608z"/>
				<path fill="#FFFFFF" d="M20.462,89.043h0.787l1.93,4.19l1.906-4.19h0.792l-2.631,5.748h-0.138L20.462,89.043z"/>
				<path fill="#FFFFFF" d="M31.843,92.884l0.623,0.327c-0.204,0.402-0.44,0.726-0.709,0.973c-0.268,0.246-0.569,0.434-0.904,0.563
					s-0.714,0.192-1.137,0.192c-0.938,0-1.671-0.307-2.199-0.922c-0.529-0.614-0.794-1.309-0.794-2.084
					c0-0.729,0.224-1.379,0.672-1.949c0.567-0.726,1.327-1.089,2.279-1.089c0.979,0,1.763,0.372,2.348,1.115
					c0.416,0.524,0.628,1.18,0.635,1.965h-5.173c0.015,0.668,0.228,1.216,0.641,1.643c0.412,0.427,0.922,0.641,1.528,0.641
					c0.293,0,0.577-0.052,0.854-0.153c0.276-0.102,0.512-0.236,0.706-0.405C31.407,93.531,31.617,93.259,31.843,92.884z
					 M31.843,91.336c-0.099-0.395-0.243-0.71-0.432-0.946c-0.188-0.235-0.438-0.426-0.748-0.57
					c-0.311-0.145-0.637-0.217-0.979-0.217c-0.564,0-1.05,0.182-1.455,0.544c-0.296,0.265-0.521,0.661-0.672,1.189H31.843z"/>
				<path fill="#FFFFFF" d="M33.555,91.547h2.905v0.645h-2.905V91.547z"/>
				<path fill="#FFFFFF" d="M37.676,94.791v-7.968h0.739v3.207c0.31-0.38,0.656-0.664,1.04-0.853s0.804-0.283,1.262-0.283
					c0.813,0,1.507,0.295,2.082,0.885c0.575,0.591,0.862,1.307,0.862,2.148c0,0.831-0.29,1.541-0.87,2.129
					c-0.581,0.588-1.279,0.882-2.096,0.882c-0.468,0-0.892-0.1-1.272-0.301c-0.38-0.2-0.716-0.502-1.008-0.903v1.057H37.676z
					 M40.634,94.226c0.411,0,0.791-0.102,1.139-0.304c0.349-0.202,0.625-0.487,0.83-0.854c0.206-0.366,0.309-0.754,0.309-1.162
					s-0.104-0.798-0.311-1.168c-0.208-0.369-0.486-0.657-0.836-0.863s-0.723-0.31-1.12-0.31c-0.404,0-0.788,0.104-1.151,0.31
					c-0.364,0.206-0.644,0.483-0.838,0.832c-0.195,0.349-0.293,0.741-0.293,1.178c0,0.666,0.219,1.223,0.656,1.67
					S39.994,94.226,40.634,94.226z"/>
				<path fill="#FFFFFF" d="M50.736,89.043v5.748h-0.729v-0.988c-0.31,0.377-0.658,0.661-1.043,0.851
					c-0.386,0.19-0.808,0.285-1.266,0.285c-0.813,0-1.509-0.295-2.085-0.885c-0.575-0.59-0.863-1.308-0.863-2.152
					c0-0.828,0.29-1.536,0.872-2.124c0.581-0.589,1.28-0.883,2.097-0.883c0.473,0,0.899,0.101,1.281,0.302
					c0.383,0.2,0.718,0.502,1.007,0.903v-1.057H50.736z M47.78,89.608c-0.412,0-0.792,0.101-1.141,0.303
					c-0.348,0.203-0.625,0.487-0.831,0.853c-0.206,0.366-0.309,0.753-0.309,1.161c0,0.404,0.104,0.792,0.312,1.161
					c0.207,0.369,0.486,0.657,0.836,0.862c0.351,0.206,0.726,0.31,1.127,0.31c0.405,0,0.788-0.103,1.15-0.307
					s0.642-0.48,0.837-0.828c0.195-0.349,0.293-0.741,0.293-1.177c0-0.665-0.22-1.221-0.657-1.668
					C48.959,89.831,48.42,89.608,47.78,89.608z"/>
				<path fill="#FFFFFF" d="M52.12,89.043h0.756v0.84c0.226-0.331,0.463-0.578,0.713-0.742s0.511-0.246,0.782-0.246
					c0.204,0,0.423,0.065,0.655,0.195l-0.386,0.624c-0.155-0.067-0.285-0.101-0.391-0.101c-0.247,0-0.484,0.102-0.714,0.304
					c-0.229,0.203-0.403,0.517-0.522,0.943c-0.092,0.327-0.138,0.989-0.138,1.986v1.944H52.12V89.043z"/>
				<path fill="#FFFFFF" d="M55.375,89.043h0.756v0.84c0.226-0.331,0.463-0.578,0.713-0.742s0.511-0.246,0.782-0.246
					c0.204,0,0.423,0.065,0.655,0.195l-0.386,0.624c-0.155-0.067-0.285-0.101-0.391-0.101c-0.247,0-0.484,0.102-0.714,0.304
					c-0.229,0.203-0.403,0.517-0.522,0.943c-0.092,0.327-0.138,0.989-0.138,1.986v1.944h-0.756V89.043z"/>
				<path fill="#FFFFFF" d="M63.75,92.884l0.623,0.327c-0.204,0.402-0.44,0.726-0.709,0.973c-0.268,0.246-0.569,0.434-0.904,0.563
					s-0.714,0.192-1.137,0.192c-0.938,0-1.671-0.307-2.199-0.922c-0.529-0.614-0.794-1.309-0.794-2.084
					c0-0.729,0.224-1.379,0.672-1.949c0.567-0.726,1.327-1.089,2.279-1.089c0.979,0,1.763,0.372,2.348,1.115
					c0.416,0.524,0.628,1.18,0.635,1.965h-5.173c0.015,0.668,0.228,1.216,0.641,1.643c0.412,0.427,0.922,0.641,1.528,0.641
					c0.293,0,0.577-0.052,0.854-0.153c0.276-0.102,0.512-0.236,0.706-0.405C63.314,93.531,63.524,93.259,63.75,92.884z
					 M63.75,91.336c-0.099-0.395-0.243-0.71-0.432-0.946c-0.188-0.235-0.438-0.426-0.748-0.57c-0.311-0.145-0.637-0.217-0.979-0.217
					c-0.564,0-1.05,0.182-1.455,0.544c-0.296,0.265-0.521,0.661-0.672,1.189H63.75z"/>
				<path fill="#FFFFFF" d="M66.587,86.908h0.739v2.135H68.5v0.639h-1.174v5.109h-0.739v-5.109h-1.009v-0.639h1.009V86.908z"/>
				<path fill="#FFFFFF" d="M70.254,86.908h0.739v2.135h1.174v0.639h-1.174v5.109h-0.739v-5.109h-1.009v-0.639h1.009V86.908z"/>
				<path fill="#FFFFFF" d="M74.09,93.629c0.18,0,0.333,0.063,0.46,0.19c0.127,0.126,0.19,0.281,0.19,0.465
					c0,0.18-0.063,0.333-0.19,0.462s-0.28,0.192-0.46,0.192s-0.333-0.063-0.46-0.192c-0.126-0.129-0.189-0.282-0.189-0.462
					c0-0.184,0.063-0.339,0.189-0.465C73.757,93.692,73.91,93.629,74.09,93.629z"/>
				<path fill="#FFFFFF" d="M81.852,90.236l-0.586,0.365c-0.507-0.673-1.198-1.01-2.074-1.01c-0.7,0-1.281,0.226-1.744,0.676
					s-0.694,0.997-0.694,1.642c0,0.419,0.106,0.813,0.319,1.182c0.213,0.37,0.505,0.656,0.876,0.86s0.787,0.307,1.248,0.307
					c0.845,0,1.534-0.337,2.069-1.01l0.586,0.386c-0.274,0.414-0.644,0.735-1.106,0.963c-0.464,0.229-0.991,0.342-1.583,0.342
					c-0.908,0-1.662-0.288-2.261-0.866c-0.599-0.577-0.898-1.28-0.898-2.107c0-0.557,0.14-1.074,0.42-1.551
					c0.28-0.478,0.665-0.85,1.154-1.118c0.49-0.268,1.037-0.401,1.644-0.401c0.38,0,0.747,0.059,1.102,0.175
					c0.354,0.116,0.654,0.268,0.9,0.454C81.47,89.71,81.679,89.948,81.852,90.236z"/>
				<path fill="#FFFFFF" d="M85.993,88.895c0.886,0,1.62,0.32,2.202,0.962c0.529,0.585,0.794,1.276,0.794,2.076
					c0,0.803-0.28,1.505-0.839,2.105c-0.56,0.601-1.278,0.9-2.157,0.9c-0.882,0-1.603-0.3-2.162-0.9
					c-0.559-0.601-0.839-1.303-0.839-2.105c0-0.796,0.265-1.486,0.794-2.071C84.368,89.217,85.104,88.895,85.993,88.895z
					 M85.991,89.618c-0.615,0-1.144,0.228-1.586,0.682c-0.441,0.455-0.663,1.004-0.663,1.648c0,0.416,0.102,0.804,0.303,1.163
					c0.201,0.358,0.474,0.636,0.816,0.832c0.343,0.195,0.72,0.293,1.13,0.293c0.409,0,0.786-0.098,1.129-0.293
					c0.343-0.196,0.615-0.474,0.816-0.832c0.201-0.359,0.303-0.747,0.303-1.163c0-0.645-0.223-1.193-0.666-1.648
					C87.13,89.846,86.603,89.618,85.991,89.618z"/>
				<path fill="#FFFFFF" d="M90.353,89.043h0.739v0.993c0.258-0.366,0.521-0.634,0.793-0.804c0.374-0.225,0.768-0.338,1.18-0.338
					c0.279,0,0.543,0.055,0.794,0.164c0.25,0.109,0.455,0.255,0.613,0.436c0.159,0.182,0.296,0.441,0.413,0.779
					c0.245-0.45,0.553-0.793,0.922-1.027s0.767-0.352,1.191-0.352c0.397,0,0.747,0.101,1.052,0.302c0.304,0.2,0.529,0.48,0.677,0.84
					s0.222,0.898,0.222,1.616v3.139h-0.756v-3.139c0-0.616-0.044-1.04-0.132-1.271c-0.087-0.23-0.237-0.416-0.45-0.558
					c-0.212-0.141-0.466-0.211-0.761-0.211c-0.357,0-0.686,0.105-0.981,0.317c-0.297,0.211-0.514,0.493-0.65,0.845
					c-0.138,0.353-0.206,0.94-0.206,1.765v2.251h-0.739v-2.942c0-0.694-0.043-1.165-0.13-1.414
					c-0.086-0.248-0.236-0.447-0.451-0.597s-0.471-0.225-0.767-0.225c-0.342,0-0.661,0.104-0.959,0.31
					c-0.297,0.206-0.518,0.483-0.66,0.832s-0.214,0.882-0.214,1.601v2.436h-0.739V89.043z"/>
			</g>
		</g>
		<g>
			<polygon fill="none" points="59.896,24.555 59.783,24.555 55.132,38.341 64.491,38.341 			"/>
			<path fill="none" d="M29.494,39.601c1.103-1.865,1.654-4.127,1.654-6.779c0-3.789-1.132-6.764-3.391-8.911
				c-0.746-0.689-1.58-1.272-2.494-1.752c-0.914-0.474-1.906-0.834-2.969-1.076c-1.065-0.243-2.224-0.363-3.475-0.363h-2.662v24.208
				h2.551c2.277,0,4.378-0.442,6.303-1.32C26.935,42.71,28.43,41.376,29.494,39.601z"/>
			<path fill="#FFFFFF" d="M26.525,53.736c1.81-0.479,3.585-1.188,5.321-2.144c0.669-0.378,1.303-0.793,1.918-1.229l4.568,12.189
				l16.055-6.016l-5.211-2.399l2.844-7.196h15.495l2.829,7.511h11.991L66.029,11.191H53.759L39.035,49.469l-2.697-1.242
				c1.344-1.317,2.519-2.819,3.523-4.509c1.998-3.304,2.997-6.936,2.997-10.896c0-1.53-0.145-3.002-0.437-4.411
				c-0.287-1.41-0.724-2.771-1.301-4.08c-1.065-2.596-2.635-4.891-4.706-6.891c-2.001-1.98-4.343-3.51-7.033-4.592
				c-2.745-1.104-5.586-1.656-8.515-1.656H4.924V54.45h15.943C22.826,54.45,24.713,54.215,26.525,53.736z M59.783,24.555h0.112
				l4.596,13.786h-9.359L59.783,24.555z M16.158,44.927V20.719h2.662c1.251,0,2.409,0.12,3.475,0.363
				c1.063,0.242,2.055,0.603,2.969,1.076c0.914,0.479,1.748,1.063,2.494,1.752c2.259,2.147,3.391,5.122,3.391,8.911
				c0,2.652-0.552,4.914-1.654,6.779c-1.064,1.775-2.56,3.109-4.482,4.006c-1.925,0.878-4.025,1.32-6.303,1.32H16.158z"/>
			<polygon fill="#FFFFFF" points="101.785,9.104 107.218,11.606 96.878,37.471 86.456,11.191 74.215,11.191 92.396,54.45 
				101.135,54.45 112.848,27.008 112.848,54.45 137.476,54.45 137.476,44.927 124.082,44.927 124.082,37.471 136.773,37.471 
				136.773,27.945 124.082,27.945 124.082,20.719 137.476,20.719 137.476,11.191 120.876,11.191 117.842,3.09 			"/>
		</g>
	</g>
</g>
</svg>
