<?xml version="1.0" encoding="utf-8"?>
<!-- Generator: Adobe Illustrator 16.0.0, SVG Export Plug-In . SVG Version: 6.00 Build 0)  -->
<!DOCTYPE svg PUBLIC "-//W3C//DTD SVG 1.1//EN" "http://www.w3.org/Graphics/SVG/1.1/DTD/svg11.dtd">
<svg version="1.1" xmlns="http://www.w3.org/2000/svg" xmlns:xlink="http://www.w3.org/1999/xlink" x="0px" y="0px"
	 width="142.408px" height="37.739px" viewBox="0 0 142.408 37.739" enable-background="new 0 0 142.408 37.739"
	 xml:space="preserve">
<g id="Layer_2">
</g>
<g id="Layer_1">
	<g>
		<g>
			<path fill="#FFFFFF" d="M4.738,8.308H9.91c2.08,0,3.679,0.247,4.796,0.74c1.118,0.494,2,1.252,2.648,2.273
				c0.647,1.022,0.972,2.158,0.972,3.406c0,1.165-0.284,2.226-0.852,3.183c-0.568,0.957-1.402,1.732-2.502,2.327
				c1.363,0.464,2.411,1.008,3.146,1.632c0.734,0.624,1.307,1.379,1.716,2.265s0.613,1.846,0.613,2.88c0,2.104-0.77,3.884-2.31,5.34
				c-1.539,1.457-3.604,2.185-6.196,2.185H4.738V8.308z M7.307,10.876v8.398h1.501c1.822,0,3.162-0.169,4.021-0.508
				c0.857-0.339,1.537-0.874,2.037-1.605c0.5-0.73,0.751-1.542,0.751-2.434c0-1.201-0.421-2.143-1.26-2.826
				c-0.84-0.684-2.178-1.025-4.013-1.025H7.307z M7.307,21.913v10.058h3.251c1.917,0,3.322-0.188,4.215-0.563
				c0.894-0.374,1.61-0.959,2.152-1.756c0.542-0.796,0.813-1.658,0.813-2.586c0-1.165-0.381-2.181-1.143-3.049
				c-0.763-0.867-1.81-1.462-3.143-1.783c-0.894-0.214-2.448-0.321-4.664-0.321H7.307z"/>
			<path fill="#FFFFFF" d="M33.432,8.308l12.232,26.23h-2.831l-4.126-8.631h-11.3l-4.086,8.631h-2.924L32.79,8.308H33.432z
				 M33.101,13.881l-4.494,9.495h8.968L33.101,13.881z"/>
			<path fill="#FFFFFF" d="M46.987,8.308h5.225c2.913,0,4.887,0.12,5.921,0.357c1.557,0.357,2.823,1.122,3.798,2.294
				c0.975,1.173,1.462,2.616,1.462,4.33c0,1.429-0.336,2.685-1.008,3.768c-0.671,1.083-1.631,1.901-2.879,2.454
				c-1.249,0.554-2.973,0.837-5.172,0.849l9.434,12.179h-3.243l-9.434-12.179h-1.481v12.179h-2.622V8.308z M49.609,10.876v8.916
				l4.519,0.035c1.75,0,3.045-0.166,3.884-0.499c0.84-0.333,1.495-0.865,1.965-1.596c0.471-0.731,0.706-1.549,0.706-2.452
				c0-0.88-0.238-1.679-0.715-2.398c-0.477-0.719-1.102-1.233-1.875-1.542c-0.774-0.31-2.061-0.464-3.857-0.464H49.609z"/>
			<path fill="#FFFFFF" d="M68.786,8.308h5.225c2.913,0,4.887,0.12,5.921,0.357c1.557,0.357,2.823,1.122,3.798,2.294
				c0.975,1.173,1.462,2.616,1.462,4.33c0,1.429-0.336,2.685-1.008,3.768c-0.671,1.083-1.631,1.901-2.879,2.454
				c-1.249,0.554-2.973,0.837-5.172,0.849l9.434,12.179h-3.243L72.89,22.359h-1.481v12.179h-2.622V8.308z M71.408,10.876v8.916
				l4.519,0.035c1.75,0,3.045-0.166,3.884-0.499c0.84-0.333,1.495-0.865,1.965-1.596c0.471-0.731,0.706-1.549,0.706-2.452
				c0-0.88-0.238-1.679-0.715-2.398c-0.477-0.719-1.102-1.233-1.875-1.542c-0.774-0.31-2.061-0.464-3.857-0.464H71.408z"/>
			<path fill="#FFFFFF" d="M90.461,8.308h15.031v2.568h-12.41v8.22h12.304v2.568H93.082v10.307h12.304v2.567H90.461V8.308z"/>
		</g>
		<g>
			<path fill="#FFFFFF" d="M110.209,10.876V8.308h14.372v2.568h-5.849v23.662h-2.675V10.876H110.209z"/>
			<path fill="#FFFFFF" d="M123.969,10.876V8.308h14.372v2.568h-5.849v23.662h-2.675V10.876H123.969z"/>
		</g>
	</g>
</g>
</svg>
