<?xml version="1.0" encoding="utf-8"?>
<!-- Generator: Adobe Illustrator 16.0.0, SVG Export Plug-In . SVG Version: 6.00 Build 0)  -->
<!DOCTYPE svg PUBLIC "-//W3C//DTD SVG 1.1//EN" "http://www.w3.org/Graphics/SVG/1.1/DTD/svg11.dtd">
<svg version="1.1" xmlns="http://www.w3.org/2000/svg" xmlns:xlink="http://www.w3.org/1999/xlink" x="0px" y="0px"
	 width="70.667px" height="82.649px" viewBox="0 0 70.667 82.649" enable-background="new 0 0 70.667 82.649" xml:space="preserve">
<g id="Layer_2">
</g>
<g id="Layer_1">
	<g>
		<path fill="#00A79D" d="M66.762,41.907c-0.45,0.5-0.971,0.91-1.57,1.221c0.57,0.37,1.1,0.75,1.59,1.13
			c0.021-0.351,0.04-0.7,0.04-1.05C66.791,42.817,66.771,42.378,66.762,41.907z M56.861,24.378c1.67-0.69,3.54-0.521,5.3,0.33
			c-1.189-2.181-2.57-4.24-4.189-6.08c0.149,1.279-0.33,2.439-1.28,2.83c-1.24,0.52-2.83-0.44-3.53-2.141
			c-0.71-1.71-0.27-3.51,0.97-4.02c0.141-0.05,0.28-0.09,0.421-0.11c-1.511-1.33-3.141-2.51-4.881-3.45c-0.64-0.399-1.3-0.76-2-1.04
			c-0.68-0.3-1.34-0.64-2.029-0.909c-1.41-0.45-2.79-1.011-4.24-1.24c-1.25-0.3-2.5-0.48-3.75-0.57c-0.36,0.66-0.72,1.33-1.05,2
			c-1.4,3.16-2.351,6.5-2.95,9.811c-0.93,6.79-0.19,13.56,2.25,19.479c2.22,5.87,6.15,10.26,9.99,12.71
			c1.899,1.28,3.97,1.851,5.609,2.18c1.721,0.25,3.21-0.14,4.21-0.569c1.051-0.66,1.66-1.431,1.971-2.28l0.22-0.7
			c0.06-0.25,0.09-0.3,0.12-0.63c0.04-0.42,0.01-0.83-0.01-0.91c0-0.01-0.29-1.16-0.73-1.939c-0.32-0.78-0.6-1.09-0.97-1.75
			c-0.21-0.33-0.42-0.65-0.62-0.971c-0.82-1.239-1.62-2.399-2.48-3.369c-0.859-0.971-1.609-1.641-2.46-2.21
			c-0.3-0.23-0.729-0.471-1.04-0.641l-0.37-0.22l-0.439-0.2c-0.4-0.189-0.62-0.3-0.62-0.3s1.78,0.06,4.57,0.62
			c0.64,0.13,1.27,0.279,1.92,0.45c-0.34-0.561-0.65-1.171-0.91-1.801C51.691,31.498,53.031,25.968,56.861,24.378z M52.201,65.777
			c-3.26-0.51-7.26-1.93-11.149-5.069c-3.79-3.17-7.61-7.71-9.95-13.521c-2.471-5.7-3.851-12.7-3.41-19.56
			c0.04-3.49,0.81-6.87,1.67-10.29c1-3.23,2.3-6.4,3.99-9.351c-0.09,0-0.19,0.011-0.28,0.011c-3.38,0.33-6.68,1.25-9.65,2.619
			c-4.369,10.15-5.43,21.95-2.699,32.57c3.18,13.25,11.93,23.91,21.13,27.99c3.21,1.54,6.34,2.35,9.29,2.62
			c2.069-1.32,3.97-2.95,5.68-4.75c1.27-1.28,2.4-2.71,3.42-4.21C57.972,65.638,55.251,66.078,52.201,65.777z M34.762,78.508
			c-3.28-2.41-6.4-5.37-9.16-8.92c-7.86-9.87-12.21-23.99-11.25-38.16c0.359-6.14,1.77-12.2,4.06-17.84
			c-0.05,0.04-0.09,0.069-0.14,0.1c-4.09,2.98-7.061,6.7-9.17,10.26c-1.09,1.771-1.87,3.561-2.57,5.21
			c-0.57,1.71-1.16,3.261-1.44,4.73c-0.02,0.09-0.039,0.17-0.06,0.25c-0.18,5.04,0.19,10.13,1.15,15.1
			c1.31,6.681,3.739,13.07,7,18.83c1.46,1.65,3.149,3.24,5.09,4.66c4.01,3.05,9.229,5.15,14.85,5.7c0.19,0.04,0.391,0.06,0.59,0.07
			c0.101,0.01,0.19,0.01,0.29,0.01h0.29c0.16,0,0.32,0,0.48,0.01h0.33C34.981,78.508,34.871,78.508,34.762,78.508z"/>
		<path fill="#62C6C2" d="M66.762,41.907c-0.45,0.5-0.971,0.91-1.57,1.221c-0.92-0.601-1.91-1.181-2.9-1.7
			c-0.8-0.42-1.58-0.8-2.38-1.15c-0.859-0.359-1.71-0.689-2.53-0.96c-0.92-0.319-1.779-0.569-2.609-0.779
			c-0.34-0.561-0.65-1.171-0.91-1.801c-2.17-5.239-0.83-10.77,3-12.359c1.67-0.69,3.54-0.521,5.3,0.33
			c0.04,0.069,0.08,0.14,0.12,0.21c1.53,2.739,2.57,5.76,3.4,8.819l0.52,2.33c0.14,0.771,0.2,1.521,0.32,2.28
			C66.711,39.348,66.731,40.697,66.762,41.907z"/>
		<path fill="#62C6C2" d="M56.691,21.458c-1.24,0.52-2.83-0.44-3.53-2.141c-0.71-1.71-0.27-3.51,0.97-4.02
			c0.141-0.05,0.28-0.09,0.421-0.11c0.789,0.7,1.539,1.43,2.26,2.19c0.399,0.399,0.79,0.819,1.16,1.25
			C58.121,19.907,57.642,21.067,56.691,21.458z"/>
	</g>
</g>
</svg>
