<?xml version="1.0" encoding="utf-8"?>
<!-- Generator: Adobe Illustrator 16.0.0, SVG Export Plug-In . SVG Version: 6.00 Build 0)  -->
<!DOCTYPE svg PUBLIC "-//W3C//DTD SVG 1.1//EN" "http://www.w3.org/Graphics/SVG/1.1/DTD/svg11.dtd">
<svg version="1.1" xmlns="http://www.w3.org/2000/svg" xmlns:xlink="http://www.w3.org/1999/xlink" x="0px" y="0px"
	 width="142.408px" height="67.106px" viewBox="0 0 142.408 67.106" enable-background="new 0 0 142.408 67.106"
	 xml:space="preserve">
<g id="Layer_2">
</g>
<g id="Layer_1">
	<g>
		<polygon fill="none" points="60.693,25.55 60.581,25.55 55.93,39.336 65.289,39.336 		"/>
		<path fill="none" d="M30.292,40.596c1.103-1.865,1.654-4.127,1.654-6.779c0-3.789-1.132-6.764-3.391-8.911
			c-0.746-0.689-1.58-1.272-2.494-1.752c-0.914-0.474-1.906-0.834-2.969-1.076c-1.065-0.243-2.224-0.363-3.475-0.363h-2.662v24.208
			h2.551c2.277,0,4.378-0.442,6.303-1.32C27.732,43.705,29.228,42.371,30.292,40.596z"/>
		<path fill="#FFFFFF" d="M27.323,54.731c1.81-0.479,3.585-1.188,5.321-2.144c0.669-0.378,1.303-0.793,1.918-1.229l4.568,12.189
			l16.055-6.016l-5.211-2.399l2.844-7.196h15.495l2.829,7.511h11.991L66.827,12.187H54.557L39.833,50.464l-2.697-1.242
			c1.344-1.317,2.519-2.819,3.523-4.509c1.998-3.304,2.997-6.936,2.997-10.896c0-1.53-0.145-3.002-0.437-4.411
			c-0.287-1.41-0.724-2.771-1.301-4.08c-1.065-2.596-2.635-4.891-4.706-6.891c-2.001-1.98-4.343-3.51-7.033-4.592
			c-2.745-1.104-5.586-1.656-8.515-1.656H5.722v43.259h15.943C23.624,55.445,25.511,55.21,27.323,54.731z M60.581,25.55h0.112
			l4.596,13.786H55.93L60.581,25.55z M16.956,45.922V21.714h2.662c1.251,0,2.409,0.12,3.475,0.363
			c1.063,0.242,2.055,0.603,2.969,1.076c0.914,0.479,1.748,1.063,2.494,1.752c2.259,2.147,3.391,5.122,3.391,8.911
			c0,2.652-0.552,4.914-1.654,6.779c-1.064,1.775-2.56,3.109-4.482,4.006c-1.925,0.878-4.025,1.32-6.303,1.32H16.956z"/>
		<polygon fill="#FFFFFF" points="102.583,10.1 108.016,12.602 97.676,38.466 87.254,12.187 75.013,12.187 93.193,55.445 
			101.933,55.445 113.646,28.003 113.646,55.445 138.273,55.445 138.273,45.922 124.88,45.922 124.88,38.466 137.571,38.466 
			137.571,28.94 124.88,28.94 124.88,21.714 138.273,21.714 138.273,12.187 121.674,12.187 118.64,4.085 		"/>
	</g>
</g>
</svg>
