<?xml version="1.0" encoding="utf-8"?>
<!-- Generator: Adobe Illustrator 16.0.0, SVG Export Plug-In . SVG Version: 6.00 Build 0)  -->
<!DOCTYPE svg PUBLIC "-//W3C//DTD SVG 1.1//EN" "http://www.w3.org/Graphics/SVG/1.1/DTD/svg11.dtd">
<svg version="1.1" xmlns="http://www.w3.org/2000/svg" xmlns:xlink="http://www.w3.org/1999/xlink" x="0px" y="0px"
	 width="181.158px" height="54.25px" viewBox="0 0 181.158 54.25" enable-background="new 0 0 181.158 54.25" xml:space="preserve">
<g id="Layer_2">
</g>
<g id="Layer_1">
	<g>
		<path fill="#03B1C6" d="M79.23,27.66c0,2.28-0.49,3.74-1.48,4.39c-0.76,0.53-3.12,0.79-7.07,0.79c-2.47,0-4.08-0.26-4.84-0.79
			c-0.95-0.649-1.43-2.109-1.43-4.39s0.479-3.74,1.43-4.391c0.76-0.529,3.19-0.8,7.29-0.8c2.32,0,3.86,0.271,4.62,0.8
			C78.74,23.95,79.23,25.42,79.23,27.66z"/>
		<path fill="#03B1C6" d="M83.96,12.75v7.29c-0.68-0.92-1.51-1.6-2.5-2.07c-1.75-0.8-4.53-1.239-8.33-1.31
			c-5.13-0.12-8.77,0.32-10.939,1.31c-1.48,0.681-2.631,1.931-3.45,3.73v-8.95H83.96z"/>
		<path fill="#03B1C6" d="M83.96,35.42v5.97H58.74V33.69c0.859,1.779,2.01,2.989,3.45,3.659c1.75,0.801,4.5,1.23,8.26,1.311
			c5.21,0.07,8.88-0.36,11.01-1.311C82.45,36.9,83.29,36.25,83.96,35.42z"/>
		<path fill="#FFFFFF" d="M120.682,32.73v5.928H107.4c-5.472,0-9.196-0.437-11.172-1.311c-2.28-1.026-3.743-3.229-4.39-6.612
			c-0.19-1.063-0.284-2.261-0.284-3.591v-10.83h7.011v10.772c0,2.585,0.475,4.199,1.425,4.846c0.76,0.532,2.413,0.798,4.959,0.798
			H120.682z"/>
		<path fill="#FFFFFF" d="M124.729,16.371l7.611,15.533l7.857-15.533h6.922l-11.457,22.287h-6.611l-11.286-22.287H124.729z"/>
		<path fill="#FFFFFF" d="M178.554,13.302h-6.72c0-3.001-0.423-4.815-1.271-5.442c-0.847-0.626-2.833-0.94-5.959-0.94
			c-1.883,0-3.312,0.095-4.292,0.284c-1.166,0.227-1.902,0.66-2.203,1.304c-0.525,1.095-0.62,2.776-0.281,5.044
			c0.228,1.627,0.866,2.647,1.92,3.061c0.453,0.151,2.993,0.228,7.625,0.228v5.441h-4.549c-2.435,0-3.971,0.341-4.608,1.021
			c-0.71,0.834-1.063,2.29-1.063,4.371c0,2.347,0.467,3.862,1.407,4.543c0.749,0.493,3.436,0.738,8.055,0.738
			c2.592,0,4.227-0.53,4.899-1.595c0.488-0.759,0.733-2.543,0.733-5.352h6.648c0,2.335-0.21,4.482-0.623,6.438
			c-0.602,2.786-2.239,4.612-4.914,5.478c-1.544,0.489-4.16,0.734-7.849,0.734c-5.197,0-8.735-0.433-10.617-1.298
			c-3.012-1.393-4.519-4.706-4.519-9.94c0-3.351,0.903-5.592,2.71-6.721c0.903-0.564,2.146-0.904,3.729-1.018l-0.115-0.226
			c-3.727-0.376-5.646-2.653-5.761-6.834c-0.074-4.479,0.829-7.492,2.714-9.034c0.751-0.604,1.637-1.074,2.653-1.413
			c1.921-0.641,4.913-0.96,8.98-0.96c3.613,0,6.229,0.282,7.851,0.849c0.901,0.337,1.693,0.789,2.371,1.354
			C177.574,5.11,178.593,8.406,178.554,13.302z"/>
		<path fill="#FFFFFF" d="M29.753,27.611h-6.782c0-3.028-0.428-4.859-1.283-5.492c-0.854-0.632-2.859-0.949-6.014-0.949
			c-1.9,0-3.344,0.096-4.332,0.286c-1.178,0.229-1.919,0.668-2.223,1.316c-0.532,1.106-0.627,2.803-0.285,5.092
			c0.229,1.641,0.874,2.67,1.938,3.089c0.456,0.152,3.021,0.229,7.694,0.229v5.492h-4.592c-2.456,0-4.006,0.344-4.648,1.031
			c-0.718,0.841-1.076,2.313-1.076,4.412c0,2.369,0.474,3.897,1.421,4.585c0.758,0.497,3.469,0.745,8.13,0.745
			c2.615,0,4.265-0.536,4.946-1.609c0.493-0.766,0.739-2.566,0.739-5.401h6.709c0,2.356-0.21,4.522-0.628,6.498
			c-0.607,2.813-2.261,4.655-4.959,5.528c-1.559,0.494-4.199,0.741-7.923,0.741c-5.244,0-8.816-0.437-10.716-1.311
			c-3.04-1.406-4.56-4.75-4.56-10.032c0-3.382,0.912-5.644,2.735-6.783c0.912-0.57,2.166-0.912,3.763-1.026l-0.114-0.228
			c-3.762-0.38-5.7-2.679-5.814-6.897c-0.076-4.521,0.836-7.562,2.736-9.12c0.76-0.607,1.653-1.083,2.679-1.425
			c1.938-0.646,4.959-0.969,9.063-0.969c3.647,0,6.288,0.285,7.923,0.855c0.912,0.342,1.71,0.798,2.394,1.367
			C28.765,19.346,29.791,22.672,29.753,27.611z"/>
		<path fill="#FFFFFF" d="M34.745,15.892h1.17c0.294,0,0.633,0.927,1.017,2.78l-0.136,0.593c2.634,7.947,4.098,12.593,4.393,13.938
			h-1.459c-0.169,0-2.029-5.528-5.578-16.583C34.344,16.18,34.542,15.937,34.745,15.892z M38.407,16.044h1.17
			c0.226,0,0.52,0.779,0.882,2.34l-0.288,0.152h-1.188c-0.227,0-0.514-0.785-0.864-2.356L38.407,16.044z M40.018,21.164h1.171
			c0.315,0,1.146,2.397,2.492,7.188c-0.192,0-0.531,0.882-1.018,2.646h-0.306l-2.492-8.223c0-0.215,0.051-0.407,0.152-0.577
			c-0.192-0.406-0.288-0.7-0.288-0.881L40.018,21.164z M40.747,35.831h1.17c0.26,0,0.604,0.831,1.034,2.491l-0.288,0.153h-1.171
			c-0.158,0-0.502-0.831-1.033-2.492L40.747,35.831z M51.31,16.044h2.493c0.146,0,0.293,0.142,0.44,0.424
			c-0.227,1.379-0.469,2.068-0.729,2.068h-1.917c-0.192,0-1.463,3.81-3.814,11.428v0.152c0.689,2.069,1.034,3.193,1.034,3.375
			c-1.018,3.323-1.65,4.984-1.899,4.984h-1.915c-0.192,0-0.486-0.831-0.882-2.492c0.418,0,1.153-1.905,2.204-5.714
			C49.354,21.046,51.017,16.305,51.31,16.044z"/>
	</g>
</g>
</svg>
